<svg width="609" height="170" viewBox="0 0 609 170" fill="none" xmlns="http://www.w3.org/2000/svg">
<g clip-path="url(#clip0_8_15)">
<path d="M26.7687 5.375H30.1437V83H26.7687V5.375ZM20.0187 5.375H23.3937V83H20.0187V5.375ZM13.2687 5.375H16.6437V83H13.2687V5.375ZM6.51874 5.375H9.89374V83H6.51874V5.375ZM89.9 55.7656L86.525 49.625V15.5H89.9V55.7656ZM96.65 67.4375L93.275 61.7188V15.5H96.65V67.4375ZM50.15 42.7344L53.525 48.875V83H50.15V42.7344ZM43.4 30.5938L46.775 36.7812V83H43.4V30.5938ZM44.5719 15.5H48.5094L87.6031 83H83.6656L44.5719 15.5ZM52.5406 15.5H56.525L95.5719 83H91.5406L52.5406 15.5ZM60.4625 15.5H64.4L100.025 77.1406V15.5H103.4V83H99.4156L60.4625 15.5ZM40.025 21.3125V83H36.65V15.5H40.6812L79.6344 83H75.7437L40.025 21.3125ZM130.062 62.75V35.75C130.062 35.75 136.297 35.75 148.766 35.75C152.234 35.75 155.203 37.0625 157.672 39.6875C160.172 42.3125 161.422 45.4688 161.422 49.1562C161.422 52.9688 160.187 56.1875 157.719 58.8125C155.25 61.4375 152.266 62.75 148.766 62.75H130.062ZM133.437 59.375H148.766C151.297 59.375 153.453 58.3906 155.234 56.4219C157.047 54.4531 157.953 52.0312 157.953 49.1562C157.953 46.4062 157.047 44.0469 155.234 42.0781C153.453 40.1094 151.297 39.125 148.766 39.125H133.437V59.375ZM126.687 66.125H148.766C153.203 66.125 157 64.4844 160.156 61.2031C163.312 57.8906 164.891 53.875 164.891 49.1562C164.891 44.5312 163.297 40.5781 160.109 37.2969C156.953 34.0156 153.172 32.375 148.766 32.375H126.687V66.125ZM123.312 69.5V29H148.766C154.109 29 158.703 30.9844 162.547 34.9531C166.422 38.8906 168.359 43.625 168.359 49.1562C168.359 54.8125 166.437 59.625 162.594 63.5938C158.75 67.5312 154.141 69.5 148.766 69.5H123.312ZM119.937 72.875H148.766C152.891 72.875 156.719 71.8281 160.25 69.7344C163.781 67.6406 166.594 64.7656 168.687 61.1094C170.781 57.4531 171.828 53.4688 171.828 49.1562C171.828 44.9375 170.781 41.0156 168.687 37.3906C166.594 33.7656 163.766 30.9063 160.203 28.8125C156.672 26.6875 152.859 25.625 148.766 25.625H119.937V72.875ZM116.562 76.25V22.25H148.766C153.484 22.25 157.875 23.4531 161.937 25.8594C166.031 28.2656 169.281 31.5469 171.687 35.7031C174.094 39.8281 175.297 44.3125 175.297 49.1562C175.297 54.0625 174.094 58.6094 171.687 62.7969C169.281 66.9531 166.031 70.2344 161.937 72.6406C157.875 75.0469 153.484 76.25 148.766 76.25H116.562ZM113.187 79.625H148.766C154.109 79.625 159.078 78.2812 163.672 75.5938C168.266 72.875 171.922 69.1719 174.641 64.4844C177.391 59.7969 178.766 54.6875 178.766 49.1562C178.766 43.7188 177.391 38.6719 174.641 34.0156C171.922 29.3281 168.25 25.6406 163.625 22.9531C159.031 20.2344 154.078 18.875 148.766 18.875H113.187V79.625ZM148.766 83H109.812V15.5H148.766C154.703 15.5 160.234 17.0156 165.359 20.0469C170.516 23.0469 174.609 27.1406 177.641 32.3281C180.703 37.4844 182.234 43.0938 182.234 49.1562C182.234 53.75 181.328 58.1406 179.516 62.3281C177.734 66.5156 175.328 70.125 172.297 73.1562C169.297 76.1562 165.734 78.5469 161.609 80.3281C157.484 82.1094 153.203 83 148.766 83ZM207.631 15.5H211.006V83H207.631V15.5ZM200.881 15.5H204.256V83H200.881V15.5ZM194.131 15.5H197.506V83H194.131V15.5ZM187.381 15.5H190.756V83H187.381V15.5ZM214.747 15.5H218.403L243.294 78.4531L268.184 15.5H271.794L245.122 83H241.466L214.747 15.5ZM222.012 15.5H225.622L245.637 66.125L243.716 70.4375L222.012 15.5ZM229.278 15.5H232.934L249.247 56.8906L247.466 61.5312L229.278 15.5ZM236.544 15.5H240.153L252.809 47.5156L251.028 52.25L236.544 15.5ZM289.934 15.5H293.591L266.872 83H263.262L289.934 15.5ZM282.716 15.5H286.325L259.606 83H255.997L282.716 15.5ZM275.403 15.5H279.059L252.341 83H248.731L275.403 15.5ZM317.394 15.5H320.769V83H317.394V15.5ZM310.644 15.5H314.019V83H310.644V15.5ZM303.894 15.5H307.269V83H303.894V15.5ZM297.144 15.5H300.519V83H297.144V15.5ZM347.431 62.75V35.75C347.431 35.75 353.666 35.75 366.134 35.75C369.603 35.75 372.572 37.0625 375.041 39.6875C377.541 42.3125 378.791 45.4688 378.791 49.1562C378.791 52.9688 377.556 56.1875 375.087 58.8125C372.619 61.4375 369.634 62.75 366.134 62.75H347.431ZM350.806 59.375H366.134C368.666 59.375 370.822 58.3906 372.603 56.4219C374.416 54.4531 375.322 52.0312 375.322 49.1562C375.322 46.4062 374.416 44.0469 372.603 42.0781C370.822 40.1094 368.666 39.125 366.134 39.125H350.806V59.375ZM344.056 66.125H366.134C370.572 66.125 374.369 64.4844 377.525 61.2031C380.681 57.8906 382.259 53.875 382.259 49.1562C382.259 44.5312 380.666 40.5781 377.478 37.2969C374.322 34.0156 370.541 32.375 366.134 32.375H344.056V66.125ZM340.681 69.5V29H366.134C371.478 29 376.072 30.9844 379.916 34.9531C383.791 38.8906 385.728 43.625 385.728 49.1562C385.728 54.8125 383.806 59.625 379.962 63.5938C376.119 67.5312 371.509 69.5 366.134 69.5H340.681ZM337.306 72.875H366.134C370.259 72.875 374.087 71.8281 377.619 69.7344C381.15 67.6406 383.962 64.7656 386.056 61.1094C388.15 57.4531 389.197 53.4688 389.197 49.1562C389.197 44.9375 388.15 41.0156 386.056 37.3906C383.962 33.7656 381.134 30.9063 377.572 28.8125C374.041 26.6875 370.228 25.625 366.134 25.625H337.306V72.875ZM333.931 76.25V22.25H366.134C370.853 22.25 375.244 23.4531 379.306 25.8594C383.4 28.2656 386.65 31.5469 389.056 35.7031C391.462 39.8281 392.666 44.3125 392.666 49.1562C392.666 54.0625 391.462 58.6094 389.056 62.7969C386.65 66.9531 383.4 70.2344 379.306 72.6406C375.244 75.0469 370.853 76.25 366.134 76.25H333.931ZM330.556 79.625H366.134C371.478 79.625 376.447 78.2812 381.041 75.5938C385.634 72.875 389.291 69.1719 392.009 64.4844C394.759 59.7969 396.134 54.6875 396.134 49.1562C396.134 43.7188 394.759 38.6719 392.009 34.0156C389.291 29.3281 385.619 25.6406 380.994 22.9531C376.4 20.2344 371.447 18.875 366.134 18.875H330.556V79.625ZM366.134 83H327.181V15.5H366.134C372.072 15.5 377.603 17.0156 382.728 20.0469C387.884 23.0469 391.978 27.1406 395.009 32.3281C398.072 37.4844 399.603 43.0938 399.603 49.1562C399.603 53.75 398.697 58.1406 396.884 62.3281C395.103 66.5156 392.697 70.125 389.666 73.1562C386.666 76.1562 383.103 78.5469 378.978 80.3281C374.853 82.1094 370.572 83 366.134 83ZM449.047 53.0938V15.5H452.422V53.0938C452.422 56.6562 451.047 59.7188 448.297 62.2812C445.578 64.8438 442.297 66.125 438.453 66.125C434.609 66.125 431.312 64.8438 428.562 62.2812C425.844 59.7188 424.484 56.6562 424.484 53.0938V15.5H427.859V53.0938C427.859 55.75 428.891 58.0312 430.953 59.9375C433.047 61.8125 435.547 62.75 438.453 62.75C441.359 62.75 443.844 61.8125 445.906 59.9375C448 58.0312 449.047 55.75 449.047 53.0938ZM455.797 53.0938V15.5H459.172V53.0938C459.172 58.5625 457.141 63.2344 453.078 67.1094C449.016 70.9531 444.141 72.875 438.453 72.875C432.766 72.875 427.891 70.9531 423.828 67.1094C419.766 63.2344 417.734 58.5625 417.734 53.0938V15.5H421.109V53.0938C421.109 57.625 422.797 61.5 426.172 64.7188C429.578 67.9062 433.672 69.5 438.453 69.5C443.203 69.5 447.281 67.9062 450.688 64.7188C454.094 61.5 455.797 57.625 455.797 53.0938ZM462.547 53.0938V15.5H465.922V53.0938C465.922 57.875 464.688 62.3125 462.219 66.4062C459.75 70.4688 456.406 73.6875 452.188 76.0625C447.969 78.4375 443.391 79.625 438.453 79.625C433.516 79.625 428.938 78.4375 424.719 76.0625C420.5 73.6875 417.156 70.4688 414.688 66.4062C412.219 62.3125 410.984 57.875 410.984 53.0938V15.5H414.359V53.0938C414.359 57.25 415.438 61.1094 417.594 64.6719C419.75 68.2344 422.672 71.0625 426.359 73.1562C430.078 75.2188 434.109 76.25 438.453 76.25C442.797 76.25 446.812 75.2188 450.5 73.1562C454.219 71.0625 457.156 68.2344 459.312 64.6719C461.469 61.1094 462.547 57.25 462.547 53.0938ZM469.297 53.0938V15.5H472.672V53.0938C472.672 57.5938 471.766 61.9062 469.953 66.0312C468.141 70.125 465.703 73.6562 462.641 76.625C459.578 79.5938 455.938 81.9531 451.719 83.7031C447.5 85.4844 443.078 86.375 438.453 86.375C433.828 86.375 429.406 85.4844 425.188 83.7031C420.969 81.9531 417.328 79.5938 414.266 76.625C411.203 73.6562 408.766 70.125 406.953 66.0312C405.141 61.9062 404.234 57.5938 404.234 53.0938V15.5H407.609V53.0938C407.609 58.4688 408.984 63.4531 411.734 68.0469C414.516 72.6406 418.266 76.2812 422.984 78.9688C427.734 81.6562 432.891 83 438.453 83C444.016 83 449.156 81.6562 453.875 78.9688C458.625 76.2812 462.375 72.6406 465.125 68.0469C467.906 63.4531 469.297 58.4688 469.297 53.0938ZM526.662 49.7188C526.662 45.7188 525.428 42.625 522.959 40.4375C520.491 38.25 517.225 37.1562 513.162 37.1562C509.725 37.1562 506.772 38.3438 504.303 40.7188C501.834 43.0938 500.6 45.9375 500.6 49.25C500.6 51.125 500.85 52.8125 501.35 54.3125C501.85 55.7812 502.522 57.0156 503.366 58.0156C504.241 58.9844 505.272 59.7969 506.459 60.4531C507.647 61.0781 508.881 61.5312 510.162 61.8125C511.475 62.0938 512.866 62.2344 514.334 62.2344C517.897 62.2344 521.147 61.3594 524.084 59.6094V62.9844C521.053 64.5781 517.787 65.375 514.287 65.375C512.037 65.375 509.912 65.0781 507.912 64.4844C505.944 63.8594 504.147 62.9375 502.522 61.7188C500.897 60.4688 499.6 58.7812 498.631 56.6562C497.694 54.5 497.225 52.0312 497.225 49.25C497.225 44.9375 498.741 41.2812 501.772 38.2812C504.803 35.2812 508.6 33.7812 513.162 33.7812C518.194 33.7812 522.256 35.2031 525.35 38.0469C528.475 40.8594 530.037 44.75 530.037 49.7188V83H526.662V49.7188ZM536.787 49.7188V83H533.412V49.7188C533.412 43.8125 531.522 39.125 527.741 35.6562C523.959 32.1562 519.1 30.4062 513.162 30.4062C507.662 30.4062 503.069 32.2344 499.381 35.8906C495.694 39.5469 493.85 44 493.85 49.25C493.85 52.4375 494.397 55.2969 495.491 57.8281C496.616 60.3594 498.131 62.3906 500.037 63.9219C501.944 65.4531 504.069 66.625 506.412 67.4375C508.787 68.2188 511.287 68.6094 513.912 68.6094C517.475 68.6094 520.866 67.7812 524.084 66.125V69.6875C520.709 71.0938 517.303 71.7969 513.866 71.7969C510.772 71.7969 507.834 71.3281 505.053 70.3906C502.272 69.4219 499.787 68.0312 497.6 66.2188C495.412 64.375 493.678 62 492.397 59.0938C491.116 56.1562 490.475 52.875 490.475 49.25C490.475 43.0938 492.647 37.8594 496.991 33.5469C501.366 29.2031 506.756 27.0312 513.162 27.0312C517.662 27.0312 521.694 27.9531 525.256 29.7969C528.819 31.6094 531.631 34.25 533.694 37.7188C535.756 41.1875 536.787 45.1875 536.787 49.7188ZM543.537 49.7188V83H540.162V49.7188C540.162 44.5625 538.975 40 536.6 36.0312C534.256 32.0312 531.037 28.9687 526.944 26.8438C522.85 24.7188 518.256 23.6562 513.162 23.6562C508.319 23.6562 503.897 24.8125 499.897 27.125C495.897 29.4063 492.756 32.5 490.475 36.4062C488.225 40.3125 487.1 44.5938 487.1 49.25C487.1 53.25 487.834 56.9062 489.303 60.2188C490.772 63.5 492.741 66.2031 495.209 68.3281C497.709 70.4531 500.537 72.1094 503.694 73.2969C506.881 74.4531 510.209 75.0312 513.678 75.0312C517.209 75.0312 520.678 74.2969 524.084 72.8281V76.25C520.522 77.5938 517.022 78.2656 513.584 78.2656C508.178 78.2656 503.209 77.0469 498.678 74.6094C494.147 72.1719 490.522 68.7188 487.803 64.25C485.084 59.7812 483.725 54.7812 483.725 49.25C483.725 45.3125 484.475 41.5625 485.975 38C487.506 34.4375 489.569 31.3594 492.162 28.7656C494.756 26.1719 497.881 24.1094 501.537 22.5781C505.194 21.0469 509.069 20.2812 513.162 20.2812C518.881 20.2812 524.037 21.5 528.631 23.9375C533.256 26.375 536.897 29.8438 539.553 34.3438C542.209 38.8438 543.537 43.9688 543.537 49.7188ZM550.287 49.7188V83H546.912V49.7188C546.912 43.3438 545.428 37.6562 542.459 32.6562C539.491 27.625 535.444 23.75 530.319 21.0312C525.194 18.2812 519.475 16.9062 513.162 16.9062C507.1 16.9062 501.553 18.3594 496.522 21.2656C491.491 24.1719 487.537 28.1094 484.662 33.0781C481.787 38.0156 480.35 43.4062 480.35 49.25C480.35 53.0938 480.959 56.75 482.178 60.2188C483.428 63.6562 485.116 66.6719 487.241 69.2656C489.397 71.8281 491.866 74.0469 494.647 75.9219C497.459 77.7969 500.475 79.2188 503.694 80.1875C506.944 81.1562 510.241 81.6406 513.584 81.6406C517.272 81.6406 520.772 80.9375 524.084 79.5312V83C520.616 84.2188 517.053 84.8281 513.397 84.8281C509.616 84.8281 505.928 84.2969 502.334 83.2344C498.772 82.1719 495.459 80.6094 492.397 78.5469C489.366 76.4531 486.694 74 484.381 71.1875C482.069 68.3438 480.256 65.0312 478.944 61.25C477.631 57.4688 476.975 53.4688 476.975 49.25C476.975 44.4062 477.881 39.7969 479.694 35.4219C481.537 31.0156 484.037 27.2188 487.194 24.0312C490.381 20.8125 494.225 18.2656 498.725 16.3906C503.256 14.4844 508.069 13.5312 513.162 13.5312C518.35 13.5312 523.225 14.4063 527.787 16.1562C532.35 17.9062 536.287 20.3437 539.6 23.4688C542.912 26.5625 545.522 30.375 547.428 34.9062C549.334 39.4375 550.287 44.375 550.287 49.7188ZM556.231 15.5H559.606V83H556.231V15.5ZM576.481 15.5H579.856V66.125H604.747V69.5H579.856V72.875H604.747V76.25H579.856V79.625H604.747V83H576.481V15.5ZM569.731 15.5H573.106V83H569.731V15.5ZM562.981 15.5H566.356V83H562.981V15.5Z" fill="#D2D2D2"/>
<path d="M97.15 142.219L98.5094 138.844H110.041L111.4 142.219H97.15ZM94.525 148.969L95.8375 145.594H112.666L114.119 148.969H94.525ZM91.9 155.719L93.2125 152.344H115.337L116.744 155.719H91.9ZM64.4781 165H60.8219L91.525 87.375H95.1812L125.837 165H122.228L93.3531 91.9219L64.4781 165ZM93.775 99.9375L95.6969 104.25L71.6969 165H68.0875L93.775 99.9375ZM97.525 108.844L99.3062 113.484L79.0094 165H75.3531L97.525 108.844ZM101.087 118.125L102.869 122.859L86.2281 165H82.6187L101.087 118.125ZM147.634 165H143.978L113.322 87.375H116.931L147.634 165ZM109.666 87.375L140.369 165H136.759L106.056 87.375H109.666ZM102.4 87.375L133.103 165H129.447L98.7906 87.375H102.4ZM182.172 132.891H176.828C170.266 132.891 165.219 131.562 161.688 128.906C158.156 126.219 156.391 122.531 156.391 117.844C156.391 113.469 158.469 109.828 162.625 106.922C166.781 103.984 172.609 102.516 180.109 102.516C185.109 102.516 189.766 103.203 194.078 104.578C198.422 105.953 202.031 107.891 204.906 110.391L202.281 112.5C199.719 110.406 196.5 108.781 192.625 107.625C188.75 106.469 184.578 105.891 180.109 105.891C173.516 105.891 168.469 107.016 164.969 109.266C161.5 111.516 159.766 114.375 159.766 117.844C159.766 121.594 161.188 124.484 164.031 126.516C166.906 128.516 171.172 129.516 176.828 129.516H181.984C188.641 129.516 193.734 130.859 197.266 133.547C200.828 136.203 202.609 139.875 202.609 144.562C202.609 148.938 200.531 152.594 196.375 155.531C192.219 158.438 186.391 159.891 178.891 159.891C173.891 159.891 169.219 159.203 164.875 157.828C160.562 156.453 156.969 154.516 154.094 152.016L156.719 149.906C159.281 152 162.5 153.625 166.375 154.781C170.25 155.938 174.422 156.516 178.891 156.516C185.484 156.516 190.516 155.391 193.984 153.141C197.484 150.891 199.234 148.031 199.234 144.562C199.234 140.812 197.797 137.938 194.922 135.938C192.078 133.906 187.828 132.891 182.172 132.891ZM182.172 139.641H176.828C168.141 139.641 161.438 137.672 156.719 133.734C152 129.766 149.641 124.469 149.641 117.844C149.641 114.812 150.312 111.969 151.656 109.312C153 106.656 154.922 104.328 157.422 102.328C159.953 100.297 163.172 98.7031 167.078 97.5469C170.984 96.3594 175.328 95.7656 180.109 95.7656C186.141 95.7656 191.781 96.6875 197.031 98.5312C202.281 100.344 206.656 102.891 210.156 106.172L207.438 108.188C204.25 105.312 200.266 103.094 195.484 101.531C190.703 99.9375 185.578 99.1406 180.109 99.1406C171.672 99.1406 165.047 100.922 160.234 104.484C155.422 108.047 153.016 112.5 153.016 117.844C153.016 123.5 155.078 127.984 159.203 131.297C163.328 134.609 169.203 136.266 176.828 136.266H181.984C191.234 136.266 195.859 139.031 195.859 144.562C195.859 147.062 194.438 149.125 191.594 150.75C188.781 152.344 184.547 153.141 178.891 153.141C174.922 153.141 171.234 152.688 167.828 151.781C164.422 150.844 161.609 149.516 159.391 147.797L162.062 145.734C165.969 148.422 171.578 149.766 178.891 149.766C183.578 149.766 187.016 149.281 189.203 148.312C191.391 147.344 192.484 146.094 192.484 144.562C192.484 142.781 191.719 141.516 190.188 140.766C188.656 140.016 185.984 139.641 182.172 139.641ZM182.172 126.141H176.828C167.703 126.141 163.141 123.375 163.141 117.844C163.141 115.344 164.547 113.297 167.359 111.703C170.203 110.078 174.453 109.266 180.109 109.266C184.078 109.266 187.766 109.734 191.172 110.672C194.578 111.578 197.391 112.891 199.609 114.609L196.938 116.672C193.031 113.984 187.422 112.641 180.109 112.641C175.422 112.641 171.984 113.125 169.797 114.094C167.609 115.062 166.516 116.312 166.516 117.844C166.516 119.625 167.281 120.891 168.812 121.641C170.344 122.391 173.016 122.766 176.828 122.766H182.172C190.859 122.766 197.562 124.75 202.281 128.719C207 132.656 209.359 137.938 209.359 144.562C209.359 147.594 208.688 150.438 207.344 153.094C206 155.75 204.062 158.094 201.531 160.125C199.031 162.125 195.828 163.719 191.922 164.906C188.016 166.062 183.672 166.641 178.891 166.641C172.859 166.641 167.219 165.734 161.969 163.922C156.719 162.078 152.344 159.516 148.844 156.234L151.562 154.219C154.75 157.094 158.734 159.328 163.516 160.922C168.297 162.484 173.422 163.266 178.891 163.266C187.328 163.266 193.953 161.484 198.766 157.922C203.578 154.359 205.984 149.906 205.984 144.562C205.984 138.906 203.922 134.422 199.797 131.109C195.672 127.797 189.797 126.141 182.172 126.141ZM234.616 97.5H237.991V165H234.616V97.5ZM227.866 97.5H231.241V165H227.866V97.5ZM221.116 97.5H224.491V165H221.116V97.5ZM214.366 97.5H217.741V165H214.366V97.5ZM275.434 132.891H270.091C263.528 132.891 258.481 131.562 254.95 128.906C251.419 126.219 249.653 122.531 249.653 117.844C249.653 113.469 251.731 109.828 255.887 106.922C260.044 103.984 265.872 102.516 273.372 102.516C278.372 102.516 283.028 103.203 287.341 104.578C291.684 105.953 295.294 107.891 298.169 110.391L295.544 112.5C292.981 110.406 289.762 108.781 285.887 107.625C282.012 106.469 277.841 105.891 273.372 105.891C266.778 105.891 261.731 107.016 258.231 109.266C254.762 111.516 253.028 114.375 253.028 117.844C253.028 121.594 254.45 124.484 257.294 126.516C260.169 128.516 264.434 129.516 270.091 129.516H275.247C281.903 129.516 286.997 130.859 290.528 133.547C294.091 136.203 295.872 139.875 295.872 144.562C295.872 148.938 293.794 152.594 289.637 155.531C285.481 158.438 279.653 159.891 272.153 159.891C267.153 159.891 262.481 159.203 258.137 157.828C253.825 156.453 250.231 154.516 247.356 152.016L249.981 149.906C252.544 152 255.762 153.625 259.637 154.781C263.512 155.938 267.684 156.516 272.153 156.516C278.747 156.516 283.778 155.391 287.247 153.141C290.747 150.891 292.497 148.031 292.497 144.562C292.497 140.812 291.059 137.938 288.184 135.938C285.341 133.906 281.091 132.891 275.434 132.891ZM275.434 139.641H270.091C261.403 139.641 254.7 137.672 249.981 133.734C245.262 129.766 242.903 124.469 242.903 117.844C242.903 114.812 243.575 111.969 244.919 109.312C246.262 106.656 248.184 104.328 250.684 102.328C253.216 100.297 256.434 98.7031 260.341 97.5469C264.247 96.3594 268.591 95.7656 273.372 95.7656C279.403 95.7656 285.044 96.6875 290.294 98.5312C295.544 100.344 299.919 102.891 303.419 106.172L300.7 108.188C297.512 105.312 293.528 103.094 288.747 101.531C283.966 99.9375 278.841 99.1406 273.372 99.1406C264.934 99.1406 258.309 100.922 253.497 104.484C248.684 108.047 246.278 112.5 246.278 117.844C246.278 123.5 248.341 127.984 252.466 131.297C256.591 134.609 262.466 136.266 270.091 136.266H275.247C284.497 136.266 289.122 139.031 289.122 144.562C289.122 147.062 287.7 149.125 284.856 150.75C282.044 152.344 277.809 153.141 272.153 153.141C268.184 153.141 264.497 152.688 261.091 151.781C257.684 150.844 254.872 149.516 252.653 147.797L255.325 145.734C259.231 148.422 264.841 149.766 272.153 149.766C276.841 149.766 280.278 149.281 282.466 148.312C284.653 147.344 285.747 146.094 285.747 144.562C285.747 142.781 284.981 141.516 283.45 140.766C281.919 140.016 279.247 139.641 275.434 139.641ZM275.434 126.141H270.091C260.966 126.141 256.403 123.375 256.403 117.844C256.403 115.344 257.809 113.297 260.622 111.703C263.466 110.078 267.716 109.266 273.372 109.266C277.341 109.266 281.028 109.734 284.434 110.672C287.841 111.578 290.653 112.891 292.872 114.609L290.2 116.672C286.294 113.984 280.684 112.641 273.372 112.641C268.684 112.641 265.247 113.125 263.059 114.094C260.872 115.062 259.778 116.312 259.778 117.844C259.778 119.625 260.544 120.891 262.075 121.641C263.606 122.391 266.278 122.766 270.091 122.766H275.434C284.122 122.766 290.825 124.75 295.544 128.719C300.262 132.656 302.622 137.938 302.622 144.562C302.622 147.594 301.95 150.438 300.606 153.094C299.262 155.75 297.325 158.094 294.794 160.125C292.294 162.125 289.091 163.719 285.184 164.906C281.278 166.062 276.934 166.641 272.153 166.641C266.122 166.641 260.481 165.734 255.231 163.922C249.981 162.078 245.606 159.516 242.106 156.234L244.825 154.219C248.012 157.094 251.997 159.328 256.778 160.922C261.559 162.484 266.684 163.266 272.153 163.266C280.591 163.266 287.216 161.484 292.028 157.922C296.841 154.359 299.247 149.906 299.247 144.562C299.247 138.906 297.184 134.422 293.059 131.109C288.934 127.797 283.059 126.141 275.434 126.141ZM319.581 116.203H322.956V165H319.581V116.203ZM306.081 100.875V97.5H356.706V100.875H306.081ZM306.081 107.625V104.25H356.706V107.625H306.081ZM306.081 114.375V111H356.706V114.375H306.081ZM339.831 116.203H343.206V165H339.831V116.203ZM333.081 116.203H336.456V165H333.081V116.203ZM326.331 116.203H329.706V165H326.331V116.203ZM378.634 165H375.259V97.5H378.634V165ZM371.884 165H368.509V97.5H371.884V165ZM365.134 165H361.759V97.5H365.134V165ZM385.384 148.125H417.681V151.5H385.384V154.875H417.681V158.25H385.384V161.625H417.681V165H382.009V97.5H417.681V100.875H385.384V104.25H417.681V107.625H385.384V111H417.681V114.375H385.384V122.766H415.806V126.141H385.384V129.516H415.806V132.891H385.384V136.266H415.806V139.641H385.384V148.125ZM476.641 137.766L473.266 131.625V97.5H476.641V137.766ZM483.391 149.438L480.016 143.719V97.5H483.391V149.438ZM436.891 124.734L440.266 130.875V165H436.891V124.734ZM430.141 112.594L433.516 118.781V165H430.141V112.594ZM431.312 97.5H435.25L474.344 165H470.406L431.312 97.5ZM439.281 97.5H443.266L482.312 165H478.281L439.281 97.5ZM447.203 97.5H451.141L486.766 159.141V97.5H490.141V165H486.156L447.203 97.5ZM426.766 103.312V165H423.391V97.5H427.422L466.375 165H462.484L426.766 103.312ZM508.506 116.203H511.881V165H508.506V116.203ZM495.006 100.875V97.5H545.631V100.875H495.006ZM495.006 107.625V104.25H545.631V107.625H495.006ZM495.006 114.375V111H545.631V114.375H495.006ZM528.756 116.203H532.131V165H528.756V116.203ZM522.006 116.203H525.381V165H522.006V116.203ZM515.256 116.203H518.631V165H515.256V116.203Z" fill="#D2D2D2"/>
</g>
<defs>
<clipPath id="clip0_8_15">
<rect width="609" height="170" fill="white"/>
</clipPath>
</defs>
</svg>
