<svg width="359" height="131" viewBox="0 0 359 131" fill="none" xmlns="http://www.w3.org/2000/svg">
<g clip-path="url(#clip0_2_2)">
<path d="M116.234 77.6875L119.609 71.3125V106H116.234V77.6875ZM122.984 64.75L126.359 58.375V106H122.984V64.75ZM129.734 52L133.109 45.5781V106H129.734V52ZM107.094 76.0938L105.172 72.5781L128.422 28.375H132.219L107.094 76.0938ZM103.203 68.7344L101.234 65.1719L120.734 28.375H124.578L103.203 68.7344ZM80.6094 71.6875L83.9844 78.0625V106H80.6094V71.6875ZM73.8594 58.8438L77.2344 65.2188V106H73.8594V58.8438ZM67.1094 46L70.4844 52.4219V106H67.1094V46ZM94.3906 85.75H90.5938L63.7344 34.7969V106H60.3594V28.375H64.1562L94.3906 85.75ZM102.031 85.75H98.1875L68 28.375H71.8438L102.031 85.75ZM136.484 34.7969L109.625 85.75H105.781L75.6406 28.375H79.4375L107.75 82.1875L136.016 28.375H139.859V106H136.484V34.7969ZM174.734 66.9531L173.047 70.6562L152.797 28.375H156.172L174.734 66.9531ZM178.109 59.5469L176.375 63.25L159.547 28.375H162.922L178.109 59.5469ZM181.484 52.1875L179.797 55.8906L166.297 28.375H169.672L181.484 52.1875ZM177.219 79.8438L201.641 28.375H205.016L180.594 79.8438V106H177.219V79.8438ZM183.969 79.8438L208.391 28.375H211.766L187.344 79.8438V106H183.969V79.8438ZM190.719 79.8438L215.141 28.375H218.516L194.094 79.8438V106H190.719V79.8438ZM172.156 76.2812L194.891 28.375H198.266L173.844 79.8438V106H170.469V79.8438L146.047 28.375H149.422L172.156 76.2812ZM250.766 69.25H270.359C273.578 69.25 276.297 68.1719 278.516 66.0156C280.766 63.8281 281.891 60.75 281.891 56.7812C281.891 53.8125 280.719 51.1562 278.375 48.8125C276.031 46.4375 273.359 45.25 270.359 45.25H241.391V106H238.016V41.875H270.359C274.297 41.875 277.766 43.3906 280.766 46.4219C283.766 49.4531 285.266 52.9062 285.266 56.7812C285.266 61.5625 283.812 65.4062 280.906 68.3125C278 71.1875 274.484 72.625 270.359 72.625H250.766V69.25ZM250.766 76H270.359C273.609 76 276.609 75.2188 279.359 73.6562C282.141 72.0625 284.375 69.7812 286.062 66.8125C287.781 63.8438 288.641 60.5 288.641 56.7812C288.641 51.9688 286.797 47.7188 283.109 44.0312C279.453 40.3438 275.203 38.5 270.359 38.5H234.641V106H231.266V35.125H270.359C274.141 35.125 277.703 36.125 281.047 38.125C284.391 40.125 287.047 42.7969 289.016 46.1406C291.016 49.4844 292.016 53.0312 292.016 56.7812C292.016 61.0312 291.016 64.9062 289.016 68.4062C287.016 71.875 284.359 74.5781 281.047 76.5156C277.766 78.4219 274.203 79.375 270.359 79.375H250.766V76ZM250.766 82.75H270.359C273.703 82.75 276.906 82.0938 279.969 80.7812C283.031 79.4375 285.688 77.6406 287.938 75.3906C290.219 73.1094 292.031 70.3594 293.375 67.1406C294.719 63.8906 295.391 60.4375 295.391 56.7812C295.391 52.4062 294.25 48.2969 291.969 44.4531C289.688 40.5781 286.609 37.5 282.734 35.2188C278.891 32.9062 274.766 31.75 270.359 31.75H227.891V106H224.516V28.375H270.359C275.359 28.375 280.047 29.6875 284.422 32.3125C288.797 34.9062 292.281 38.3906 294.875 42.7656C297.469 47.1406 298.766 51.8125 298.766 56.7812C298.766 61.2188 298 65.3125 296.469 69.0625C294.938 72.7812 292.875 75.875 290.281 78.3438C287.688 80.8125 284.672 82.7344 281.234 84.1094C277.797 85.4531 274.172 86.125 270.359 86.125H250.766V82.75ZM248.141 106H244.766V48.625H270.359C272.578 48.625 274.484 49.4375 276.078 51.0625C277.703 52.6875 278.516 54.5938 278.516 56.7812C278.516 62.8438 275.797 65.875 270.359 65.875H250.766V62.5H270.359C271.859 62.5 273.031 62.0781 273.875 61.2344C274.719 60.3906 275.141 58.9062 275.141 56.7812C275.141 55.4062 274.672 54.2656 273.734 53.3594C272.828 52.4531 271.703 52 270.359 52H248.141V106Z" fill="#D2D2D2"/>
<path d="M23.57 50V13.28H27.0125L41.4455 44.1605L55.802 13.28H59.2955V49.9745H55.7255V21.644L42.644 50H40.2215L27.1655 21.644V50H23.57ZM71.5518 17.2325V13.025H75.3003V17.2325H71.5518ZM71.5518 50V22.46H75.3003V50H71.5518ZM87.5352 50V22.46H90.9012V29.09L90.2382 28.223C90.5442 27.407 90.9437 26.659 91.4367 25.979C91.9297 25.282 92.4652 24.7125 93.0432 24.2705C93.7572 23.6415 94.5902 23.1655 95.5422 22.8425C96.4942 22.5025 97.4547 22.307 98.4237 22.256C99.3927 22.188 100.277 22.256 101.076 22.46V25.979C100.073 25.724 98.9762 25.6645 97.7862 25.8005C96.5962 25.9365 95.4997 26.4125 94.4967 27.2285C93.5787 27.9425 92.8902 28.801 92.4312 29.804C91.9722 30.79 91.6662 31.844 91.5132 32.966C91.3602 34.071 91.2837 35.1675 91.2837 36.2555V50H87.5352ZM121.506 50.765C118.769 50.765 116.431 50.1445 114.493 48.9035C112.555 47.6625 111.068 45.9455 110.031 43.7525C108.994 41.5595 108.475 39.0435 108.475 36.2045C108.475 33.3145 109.002 30.7815 110.056 28.6055C111.11 26.4295 112.606 24.738 114.544 23.531C116.499 22.307 118.82 21.695 121.506 21.695C124.26 21.695 126.606 22.3155 128.544 23.5565C130.499 24.7805 131.986 26.489 133.006 28.682C134.043 30.858 134.562 33.3655 134.562 36.2045C134.562 39.0945 134.043 41.636 133.006 43.829C131.969 46.005 130.473 47.705 128.518 48.929C126.563 50.153 124.226 50.765 121.506 50.765ZM121.506 47.1695C124.566 47.1695 126.844 46.158 128.34 44.135C129.836 42.095 130.584 39.4515 130.584 36.2045C130.584 32.8725 129.827 30.2205 128.314 28.2485C126.818 26.2765 124.549 25.2905 121.506 25.2905C119.449 25.2905 117.749 25.758 116.406 26.693C115.08 27.611 114.085 28.8945 113.422 30.5435C112.776 32.1755 112.453 34.0625 112.453 36.2045C112.453 39.5195 113.218 42.18 114.748 44.186C116.278 46.175 118.531 47.1695 121.506 47.1695ZM164.667 50V35.9495C164.667 34.4195 164.522 33.017 164.233 31.742C163.944 30.45 163.477 29.328 162.831 28.376C162.202 27.407 161.377 26.659 160.357 26.132C159.354 25.605 158.13 25.3415 156.685 25.3415C155.359 25.3415 154.186 25.571 153.166 26.03C152.163 26.489 151.313 27.152 150.616 28.019C149.936 28.869 149.418 29.906 149.061 31.13C148.704 32.354 148.525 33.748 148.525 35.312L145.873 34.7255C145.873 31.9035 146.366 29.532 147.352 27.611C148.338 25.69 149.698 24.2365 151.432 23.2505C153.166 22.2645 155.155 21.7715 157.399 21.7715C159.048 21.7715 160.485 22.0265 161.709 22.5365C162.95 23.0465 163.995 23.735 164.845 24.602C165.712 25.469 166.409 26.4635 166.936 27.5855C167.463 28.6905 167.846 29.872 168.084 31.13C168.322 32.371 168.441 33.612 168.441 34.853V50H164.667ZM144.751 50V22.46H148.143V29.243H148.525V50H144.751ZM190.999 50.765C188.262 50.765 185.925 50.1445 183.987 48.9035C182.049 47.6625 180.561 45.9455 179.524 43.7525C178.487 41.5595 177.969 39.0435 177.969 36.2045C177.969 33.3145 178.496 30.7815 179.55 28.6055C180.604 26.4295 182.1 24.738 184.038 23.531C185.993 22.307 188.313 21.695 190.999 21.695C193.753 21.695 196.099 22.3155 198.037 23.5565C199.992 24.7805 201.48 26.489 202.5 28.682C203.537 30.858 204.055 33.3655 204.055 36.2045C204.055 39.0945 203.537 41.636 202.5 43.829C201.463 46.005 199.967 47.705 198.012 48.929C196.057 50.153 193.719 50.765 190.999 50.765ZM190.999 47.1695C194.059 47.1695 196.337 46.158 197.833 44.135C199.329 42.095 200.077 39.4515 200.077 36.2045C200.077 32.8725 199.321 30.2205 197.808 28.2485C196.312 26.2765 194.042 25.2905 190.999 25.2905C188.942 25.2905 187.242 25.758 185.899 26.693C184.573 27.611 183.579 28.8945 182.916 30.5435C182.27 32.1755 181.947 34.0625 181.947 36.2045C181.947 39.5195 182.712 42.18 184.242 44.186C185.772 46.175 188.024 47.1695 190.999 47.1695ZM220.72 50L210.724 22.46H214.524L222.658 45.104L230.742 22.46H234.592L224.596 50H220.72ZM267.309 50V34.6235L254.992 13.28H259.327L269.196 30.3395L279.013 13.28H283.348L271.083 34.6235V50H267.309ZM289.449 50V22.46H292.815V29.09L292.152 28.223C292.458 27.407 292.858 26.659 293.351 25.979C293.844 25.282 294.379 24.7125 294.957 24.2705C295.671 23.6415 296.504 23.1655 297.456 22.8425C298.408 22.5025 299.369 22.307 300.338 22.256C301.307 22.188 302.191 22.256 302.99 22.46V25.979C301.987 25.724 300.89 25.6645 299.7 25.8005C298.51 25.9365 297.414 26.4125 296.411 27.2285C295.493 27.9425 294.804 28.801 294.345 29.804C293.886 30.79 293.58 31.844 293.427 32.966C293.274 34.071 293.198 35.1675 293.198 36.2555V50H289.449ZM312.927 17.2325V13.025H316.676V17.2325H312.927ZM312.927 50V22.46H316.676V50H312.927ZM324.831 62.24V58.619H326.386C327.627 58.619 328.613 58.296 329.344 57.65C330.092 57.021 330.466 55.9585 330.466 54.4625V22.46H334.189V55.406C334.189 57.701 333.637 59.4095 332.532 60.5315C331.444 61.6705 329.769 62.24 327.508 62.24H324.831ZM330.466 17.2325V13.025H334.189V17.2325H330.466Z" fill="black"/>
<path d="M99.52 120V94.08H109.528C109.78 94.08 110.062 94.092 110.374 94.116C110.698 94.128 111.022 94.164 111.346 94.224C112.702 94.428 113.848 94.902 114.784 95.646C115.732 96.378 116.446 97.302 116.926 98.418C117.418 99.534 117.664 100.77 117.664 102.126C117.664 103.47 117.418 104.7 116.926 105.816C116.434 106.932 115.714 107.862 114.766 108.606C113.83 109.338 112.69 109.806 111.346 110.01C111.022 110.058 110.698 110.094 110.374 110.118C110.062 110.142 109.78 110.154 109.528 110.154H102.166V120H99.52ZM102.166 107.634H109.456C109.672 107.634 109.924 107.622 110.212 107.598C110.5 107.574 110.782 107.532 111.058 107.472C111.946 107.28 112.672 106.914 113.236 106.374C113.812 105.834 114.238 105.192 114.514 104.448C114.802 103.704 114.946 102.93 114.946 102.126C114.946 101.322 114.802 100.548 114.514 99.804C114.238 99.048 113.812 98.4 113.236 97.86C112.672 97.32 111.946 96.954 111.058 96.762C110.782 96.702 110.5 96.666 110.212 96.654C109.924 96.63 109.672 96.618 109.456 96.618H102.166V107.634ZM124.847 120V100.56H127.223V105.24L126.755 104.628C126.971 104.052 127.253 103.524 127.601 103.044C127.949 102.552 128.327 102.15 128.735 101.838C129.239 101.394 129.827 101.058 130.499 100.83C131.171 100.59 131.849 100.452 132.533 100.416C133.217 100.368 133.841 100.416 134.405 100.56V103.044C133.697 102.864 132.923 102.822 132.083 102.918C131.243 103.014 130.469 103.35 129.761 103.926C129.113 104.43 128.627 105.036 128.303 105.744C127.979 106.44 127.763 107.184 127.655 107.976C127.547 108.756 127.493 109.53 127.493 110.298V120H124.847ZM149.186 120.54C147.254 120.54 145.604 120.102 144.236 119.226C142.868 118.35 141.818 117.138 141.086 115.59C140.354 114.042 139.988 112.266 139.988 110.262C139.988 108.222 140.36 106.434 141.104 104.898C141.848 103.362 142.904 102.168 144.272 101.316C145.652 100.452 147.29 100.02 149.186 100.02C151.13 100.02 152.786 100.458 154.154 101.334C155.534 102.198 156.584 103.404 157.304 104.952C158.036 106.488 158.402 108.258 158.402 110.262C158.402 112.302 158.036 114.096 157.304 115.644C156.572 117.18 155.516 118.38 154.136 119.244C152.756 120.108 151.106 120.54 149.186 120.54ZM149.186 118.002C151.346 118.002 152.954 117.288 154.01 115.86C155.066 114.42 155.594 112.554 155.594 110.262C155.594 107.91 155.06 106.038 153.992 104.646C152.936 103.254 151.334 102.558 149.186 102.558C147.734 102.558 146.534 102.888 145.586 103.548C144.65 104.196 143.948 105.102 143.48 106.266C143.024 107.418 142.796 108.75 142.796 110.262C142.796 112.602 143.336 114.48 144.416 115.896C145.496 117.3 147.086 118.002 149.186 118.002ZM163.092 128.64V126.084H164.19C165.066 126.084 165.762 125.856 166.278 125.4C166.806 124.956 167.07 124.206 167.07 123.15V100.56H169.698V123.816C169.698 125.436 169.308 126.642 168.528 127.434C167.76 128.238 166.578 128.64 164.982 128.64H163.092ZM167.07 96.87V93.9H169.698V96.87H167.07ZM186.834 120.54C184.938 120.54 183.294 120.12 181.902 119.28C180.522 118.44 179.448 117.258 178.68 115.734C177.912 114.21 177.528 112.422 177.528 110.37C177.528 108.246 177.906 106.41 178.662 104.862C179.418 103.314 180.48 102.12 181.848 101.28C183.228 100.44 184.854 100.02 186.726 100.02C188.646 100.02 190.284 100.464 191.64 101.352C192.996 102.228 194.022 103.488 194.718 105.132C195.414 106.776 195.732 108.738 195.672 111.018H192.972V110.082C192.924 107.562 192.378 105.66 191.334 104.376C190.302 103.092 188.79 102.45 186.798 102.45C184.71 102.45 183.108 103.128 181.992 104.484C180.888 105.84 180.336 107.772 180.336 110.28C180.336 112.728 180.888 114.63 181.992 115.986C183.108 117.33 184.686 118.002 186.726 118.002C188.118 118.002 189.33 117.684 190.362 117.048C191.406 116.4 192.228 115.47 192.828 114.258L195.294 115.212C194.526 116.904 193.392 118.218 191.892 119.154C190.404 120.078 188.718 120.54 186.834 120.54ZM179.4 111.018V108.804H194.25V111.018H179.4ZM211.33 120.54C209.374 120.54 207.718 120.102 206.362 119.226C205.006 118.35 203.974 117.144 203.266 115.608C202.57 114.06 202.21 112.284 202.186 110.28C202.21 108.24 202.582 106.452 203.302 104.916C204.022 103.368 205.06 102.168 206.416 101.316C207.772 100.452 209.416 100.02 211.348 100.02C213.316 100.02 215.026 100.5 216.478 101.46C217.942 102.42 218.944 103.734 219.484 105.402L216.892 106.23C216.436 105.066 215.71 104.166 214.714 103.53C213.73 102.882 212.602 102.558 211.33 102.558C209.902 102.558 208.72 102.888 207.784 103.548C206.848 104.196 206.152 105.102 205.696 106.266C205.24 107.43 205.006 108.768 204.994 110.28C205.018 112.608 205.558 114.48 206.614 115.896C207.67 117.3 209.242 118.002 211.33 118.002C212.65 118.002 213.772 117.702 214.696 117.102C215.632 116.49 216.34 115.602 216.82 114.438L219.484 115.23C218.764 116.958 217.708 118.278 216.316 119.19C214.924 120.09 213.262 120.54 211.33 120.54ZM237.384 120C236.292 120.228 235.212 120.318 234.144 120.27C233.088 120.222 232.14 119.994 231.3 119.586C230.472 119.178 229.842 118.542 229.41 117.678C229.062 116.958 228.87 116.232 228.834 115.5C228.81 114.756 228.798 113.91 228.798 112.962V95.16H231.426V112.854C231.426 113.67 231.432 114.354 231.444 114.906C231.468 115.446 231.594 115.926 231.822 116.346C232.254 117.15 232.938 117.63 233.874 117.786C234.822 117.942 235.992 117.906 237.384 117.678V120ZM224.64 102.828V100.56H237.384V102.828H224.64ZM252.068 120.522C249.788 120.522 247.91 120.03 246.434 119.046C244.97 118.062 244.07 116.694 243.734 114.942L246.434 114.492C246.722 115.596 247.376 116.478 248.396 117.138C249.428 117.786 250.7 118.11 252.212 118.11C253.688 118.11 254.852 117.804 255.704 117.192C256.556 116.568 256.982 115.722 256.982 114.654C256.982 114.054 256.844 113.568 256.568 113.196C256.304 112.812 255.758 112.458 254.93 112.134C254.102 111.81 252.866 111.426 251.222 110.982C249.458 110.502 248.078 110.022 247.082 109.542C246.086 109.062 245.378 108.51 244.958 107.886C244.538 107.25 244.328 106.476 244.328 105.564C244.328 104.46 244.64 103.494 245.264 102.666C245.888 101.826 246.752 101.178 247.856 100.722C248.96 100.254 250.244 100.02 251.708 100.02C253.172 100.02 254.48 100.26 255.632 100.74C256.796 101.208 257.732 101.868 258.44 102.72C259.148 103.572 259.568 104.562 259.7 105.69L257 106.176C256.82 105.036 256.25 104.136 255.29 103.476C254.342 102.804 253.136 102.456 251.672 102.432C250.292 102.396 249.17 102.66 248.306 103.224C247.442 103.776 247.01 104.514 247.01 105.438C247.01 105.954 247.166 106.398 247.478 106.77C247.79 107.13 248.354 107.472 249.17 107.796C249.998 108.12 251.174 108.474 252.698 108.858C254.486 109.314 255.89 109.794 256.91 110.298C257.93 110.802 258.656 111.396 259.088 112.08C259.52 112.764 259.736 113.61 259.736 114.618C259.736 116.454 259.052 117.9 257.684 118.956C256.328 120 254.456 120.522 252.068 120.522Z" fill="black"/>
</g>
<defs>
<clipPath id="clip0_2_2">
<rect width="359" height="131" fill="white"/>
</clipPath>
</defs>
</svg>
