<svg width="140" height="30" viewBox="0 0 140 30" fill="none" xmlns="http://www.w3.org/2000/svg">
<g clip-path="url(#clip0)">
<g filter="url(#filter0_dd)">
<path d="M15.3555 9.61523L12.748 9.55664C12.0645 9.55664 11.2734 9.625 10.375 9.76172C10.3359 10.5234 10.2578 11.5098 10.1406 12.7207C9.73047 17.0176 9.52539 19.8105 9.52539 21.0996C9.52539 22.3691 9.54492 23.2676 9.58398 23.7949L6.83008 24L7.73828 9.52734L1.49805 9.17578C1.3418 9.17578 1.21484 9.04883 1.11719 8.79492C1.03906 8.54102 1 8.30664 1 8.0918C1 7.87695 1.08789 7.64258 1.26367 7.38867C1.43945 7.13477 1.64453 7.00781 1.87891 7.00781C3.30469 7.06641 4.74023 7.16406 6.18555 7.30078C8.86133 7.53516 11.1367 7.65234 13.0117 7.65234L14.8281 7.59375C16.2539 7.55469 17.6699 7.39844 19.0762 7.125C19.3887 7.18359 19.584 7.67187 19.6621 8.58984C19.6816 8.78516 19.6914 8.94141 19.6914 9.05859C18.4023 9.42969 16.957 9.61523 15.3555 9.61523ZM21.2148 18.4336C21.2148 16.1289 22.2109 14.2734 24.2031 12.8672C25.7852 11.7539 27.6895 11.0801 29.916 10.8457C30.0332 10.8457 30.3066 10.8457 30.7363 10.8457C31.166 10.8457 31.7422 10.9727 32.4648 11.2266C34.0664 11.7734 35.1602 12.7402 35.7461 14.127C35.9805 14.6738 36.0977 15.1426 36.0977 15.5332C36.0977 15.9043 36.0879 16.168 36.0684 16.3242C36.0684 18.7656 35.1406 20.6895 33.2852 22.0957C31.5664 23.3848 29.418 24.0293 26.8398 24.0293C24.9844 24.0293 23.5781 23.5996 22.6211 22.7402C21.6836 21.8809 21.2148 20.4453 21.2148 18.4336ZM23.2363 19.1367C23.2363 20.3477 23.5586 21.168 24.2031 21.5977C24.6914 21.9102 25.5117 22.0664 26.6641 22.0664C27.8164 22.0664 28.832 21.9785 29.7109 21.8027C30.5898 21.627 31.3711 21.3242 32.0547 20.8945C33.5195 19.957 34.252 18.502 34.252 16.5293C34.252 15.3574 33.9395 14.4004 33.3145 13.6582C32.6309 12.8574 31.7324 12.457 30.6191 12.457C29.8574 12.5938 29.0859 12.7402 28.3047 12.8965C27.543 13.0527 26.8203 13.3555 26.1367 13.8047C24.6523 14.7617 23.6855 16.5391 23.2363 19.1367ZM39.6426 6.01172C41.0879 5.50391 43.002 5.25 45.3848 5.25C49.7402 5.25 52.7188 6.32422 54.3203 8.47266C54.9453 9.29297 55.2578 10.3379 55.2578 11.6074C55.2773 11.7832 55.2871 11.959 55.2871 12.1348C55.2871 14.0879 54.1445 16.0703 51.8594 18.082C49.7695 19.9766 47.1914 21.5 44.125 22.6523C42.0938 23.4336 40.4141 23.8242 39.0859 23.8242C38.5391 23.8242 38.0703 23.7461 37.6797 23.5898V5.30859H38.0898C38.5391 5.30859 38.9004 5.38672 39.1738 5.54297C39.4473 5.67969 39.6035 5.83594 39.6426 6.01172ZM53.2949 11.8418C53.1191 10.1035 52.1523 8.81445 50.3945 7.97461C49.0859 7.34961 47.4453 7.03711 45.4727 7.03711L44.9453 7.06641C43.0898 7.10547 41.4883 7.39844 40.1406 7.94531V21.9199C41.5078 21.9199 43.2168 21.4219 45.2676 20.4258C48.8223 18.668 51.2637 16.627 52.5918 14.3027C53.0605 13.4824 53.2949 12.6621 53.2949 11.8418ZM57.543 18.4336C57.543 16.1289 58.5391 14.2734 60.5312 12.8672C62.1133 11.7539 64.0176 11.0801 66.2441 10.8457C66.3613 10.8457 66.6348 10.8457 67.0645 10.8457C67.4941 10.8457 68.0703 10.9727 68.793 11.2266C70.3945 11.7734 71.4883 12.7402 72.0742 14.127C72.3086 14.6738 72.4258 15.1426 72.4258 15.5332C72.4258 15.9043 72.416 16.168 72.3965 16.3242C72.3965 18.7656 71.4688 20.6895 69.6133 22.0957C67.8945 23.3848 65.7461 24.0293 63.168 24.0293C61.3125 24.0293 59.9062 23.5996 58.9492 22.7402C58.0117 21.8809 57.543 20.4453 57.543 18.4336ZM59.5645 19.1367C59.5645 20.3477 59.8867 21.168 60.5312 21.5977C61.0195 21.9102 61.8398 22.0664 62.9922 22.0664C64.1445 22.0664 65.1602 21.9785 66.0391 21.8027C66.918 21.627 67.6992 21.3242 68.3828 20.8945C69.8477 19.957 70.5801 18.502 70.5801 16.5293C70.5801 15.3574 70.2676 14.4004 69.6426 13.6582C68.959 12.8574 68.0605 12.457 66.9473 12.457C66.1855 12.5938 65.4141 12.7402 64.6328 12.8965C63.8711 13.0527 63.1484 13.3555 62.4648 13.8047C60.9805 14.7617 60.0137 16.5391 59.5645 19.1367ZM87.25 11.1973L87.1914 3.90234L89.5352 3.99023L89.2715 21.1582L104.711 21.5977C105.023 21.6953 105.18 21.8613 105.18 22.0957C105.18 22.3301 105.033 22.5742 104.74 22.8281C104.174 23.3359 103.529 23.5898 102.807 23.5898C102.631 23.5898 102.445 23.5703 102.25 23.5312L86.5176 23.3848C87.0059 21.5684 87.25 17.5059 87.25 11.1973ZM109.105 10.2305C109.359 13.8828 109.574 18.1113 109.75 22.916C109.633 23.5215 109.164 23.8242 108.344 23.8242C108.129 23.8242 107.904 23.7852 107.67 23.707C107.455 23.6094 107.318 23.4824 107.26 23.3262V10.2305H109.105ZM106.381 6.24609C106.381 5.5625 106.781 5.2207 107.582 5.2207C108.109 5.2207 108.539 5.33789 108.871 5.57227C108.93 5.78711 108.959 6.00195 108.959 6.2168C108.959 6.41211 108.881 6.60742 108.725 6.80273C108.568 6.99805 108.334 7.0957 108.021 7.0957C107.709 7.0957 107.396 7.02734 107.084 6.89062C106.771 6.73437 106.537 6.51953 106.381 6.24609ZM121.029 16.4414C123.178 16.4414 124.252 16.9883 124.252 18.082C124.252 18.9023 123.656 19.8594 122.465 20.9531C120.688 22.5742 118.295 23.873 115.287 24.8496C115.15 24.8496 114.994 24.7129 114.818 24.4395C114.662 24.166 114.535 23.9609 114.438 23.8242C114.359 23.668 114.301 23.5703 114.262 23.5312C116.508 22.7891 118.354 21.8906 119.799 20.8359C120.775 20.1328 121.264 19.5566 121.264 19.1074C121.264 18.6582 120.688 18.4336 119.535 18.4336C118.383 18.4336 116.693 18.707 114.467 19.2539C113.451 19.2148 112.572 18.8535 111.83 18.1699C111.186 17.5645 110.863 16.959 110.863 16.3535C110.863 15.7285 111.039 15.1621 111.391 14.6543C111.742 14.127 112.211 13.6387 112.797 13.1895C113.383 12.7402 114.066 12.3301 114.848 11.959C116.762 11.041 118.744 10.582 120.795 10.582C121.4 10.582 121.986 10.6406 122.553 10.7578C123.021 10.7578 123.295 10.9629 123.373 11.373C123.451 11.7832 123.49 12.457 123.49 13.3945C122.338 12.8672 121.039 12.6035 119.594 12.6035C117.797 12.6035 116.312 12.9648 115.141 13.6875C113.93 14.3906 113.305 15.3086 113.266 16.4414C113.266 16.9883 113.666 17.2617 114.467 17.2617L116.605 17.0273C118.441 16.6367 119.916 16.4414 121.029 16.4414ZM130.492 21.1875L130.551 16.5C130.551 15.7578 130.482 15.123 130.346 14.5957H125.805L125.746 12.5742H130.141V5.01562C130.199 4.83984 130.316 4.66406 130.492 4.48828C130.766 4.21484 130.99 4.07812 131.166 4.07812C131.361 4.07812 131.527 4.09766 131.664 4.13672C131.801 4.17578 131.947 4.3125 132.104 4.54688C132.416 5.83594 132.572 7.7793 132.572 10.377C132.572 11.0215 132.602 11.6562 132.66 12.2812C133.285 12.2031 133.91 12.1641 134.535 12.1641C134.535 12.1641 135.043 12.1641 136.059 12.1641C136.43 12.1641 136.771 12.1445 137.084 12.1055L136.996 14.2148L132.719 14.0977L132.865 24.2051C132.514 24.3613 132.211 24.4395 131.957 24.4395C130.98 24.4395 130.492 23.3555 130.492 21.1875Z" fill="#0500E6"/>
</g>
</g>
<defs>
<filter id="filter0_dd" x="-3" y="3.90234" width="144.084" height="28.9473" filterUnits="userSpaceOnUse" color-interpolation-filters="sRGB">
<feFlood flood-opacity="0" result="BackgroundImageFix"/>
<feColorMatrix in="SourceAlpha" type="matrix" values="0 0 0 0 0 0 0 0 0 0 0 0 0 0 0 0 0 0 127 0"/>
<feOffset dy="4"/>
<feGaussianBlur stdDeviation="2"/>
<feColorMatrix type="matrix" values="0 0 0 0 0 0 0 0 0 0 0 0 0 0 0 0 0 0 0.25 0"/>
<feBlend mode="normal" in2="BackgroundImageFix" result="effect1_dropShadow"/>
<feColorMatrix in="SourceAlpha" type="matrix" values="0 0 0 0 0 0 0 0 0 0 0 0 0 0 0 0 0 0 127 0"/>
<feOffset dy="4"/>
<feGaussianBlur stdDeviation="2"/>
<feColorMatrix type="matrix" values="0 0 0 0 0 0 0 0 0 0 0 0 0 0 0 0 0 0 0.25 0"/>
<feBlend mode="normal" in2="effect1_dropShadow" result="effect2_dropShadow"/>
<feBlend mode="normal" in="SourceGraphic" in2="effect2_dropShadow" result="shape"/>
</filter>
<clipPath id="clip0">
<rect width="140" height="30" fill="white"/>
</clipPath>
</defs>
</svg>
